Coordinates
version=1
nRows=8
nColumns=40
inDegrees=yes

Units are S.I. units (second, meters, Newtons, ...)
Angles are in degrees.

endheader
time	pelvis_tilt	pelvis_list	pelvis_rotation	pelvis_tx	pelvis_ty	pelvis_tz	hip_flexion_r	hip_adduction_r	hip_rotation_r	knee_angle_r	knee_angle_r_beta	ankle_angle_r	subtalar_angle_r	mtp_angle_r	hip_flexion_l	hip_adduction_l	hip_rotation_l	knee_angle_l	knee_angle_l_beta	ankle_angle_l	subtalar_angle_l	mtp_angle_l	lumbar_extension	lumbar_bending	lumbar_rotation	arm_flex_r	arm_add_r	arm_rot_r	elbow_flex_r	pro_sup_r	wrist_flex_r	wrist_dev_r	arm_flex_l	arm_add_l	arm_rot_l	elbow_flex_l	pro_sup_l	wrist_flex_l	wrist_dev_l
      4.83750000	     -4.35562148	     -4.33137474	      4.69264585	      0.83577989	      0.93349200	      0.47818504	      8.91889418	      3.69973723	    -18.04723324	     12.53177276	     12.53177276	     10.18534245	      0.99950898	     -2.86579188	     32.51824770	    -10.04848354	      0.26690133	     46.08875176	     46.08875176	     11.33992796	    -18.38354023	     15.60456479	     -8.87090613	      5.43564503	      3.71801921	     31.84384802	    -18.79782881	     -3.42849217	    113.80770279	     44.15591755	      0.00000000	      0.00000000	      1.69616593	     -8.47569887	      7.64192198	     25.16626976	     46.52833525	      0.00000000	      0.00000000
      4.84957143	     -4.46818311	     -4.32912548	      4.89270709	      0.83445305	      0.93321958	      0.47783026	      8.30807382	      3.77424315	    -18.35748043	     11.93857287	     11.93857287	     10.34846252	      1.50215787	     -3.25768892	     32.58618183	     -9.58953990	      0.53838441	     42.35291394	     42.35291394	     10.41946459	    -18.03192653	     13.47714228	     -8.99070818	      5.53152131	      3.72804740	     33.25416815	    -18.45895268	     -4.24417406	    115.47331174	     44.17745252	      0.00000000	      0.00000000	      0.13713992	     -9.03218274	      8.32705841	     25.77722709	     46.30800304	      0.00000000	      0.00000000
      4.86164286	     -4.75683640	     -4.27401310	      5.05269836	      0.83290067	      0.93259888	      0.47727050	      8.09322353	      3.73956110	    -18.36319367	     11.72454501	     11.72454501	     10.63119390	      1.38721039	     -3.36004758	     32.88623800	     -9.03707550	      0.84686818	     38.82975193	     38.82975193	     10.46631261	    -17.01884942	     13.65079840	     -8.84068023	      5.58187554	      3.94232732	     34.64590363	    -18.84273077	     -4.60831397	    116.00603393	     44.18394839	      0.00000000	      0.00000000	     -0.91829771	     -9.29398314	      8.39205274	     25.49220804	     46.26927525	      0.00000000	      0.00000000
      4.87371429	     -4.82489682	     -4.19650937	      5.23557827	      0.83159372	      0.93221351	      0.47669047	      7.49158973	      3.72269050	    -18.52041223	     11.26269894	     11.26269894	     10.80556995	      1.66948080	     -3.91684120	     32.63060475	     -8.43067794	      1.30329480	     34.80299979	     34.80299979	      8.81330865	    -16.47542434	      9.87926824	     -9.00734734	      5.50758935	      3.83224563	     36.14913669	    -18.54106403	     -4.86249489	    116.95669971	     44.23708954	      0.00000000	      0.00000000	     -2.58898184	    -10.04087281	      9.88986139	     26.59542368	     45.88654078	      0.00000000	      0.00000000
      4.88578571	     -5.05983612	     -4.14092680	      5.39773602	      0.83011708	      0.93155738	      0.47601815	      7.18878268	      3.68875764	    -18.53501668	     11.00973884	     11.00973884	     11.10789599	      1.66103291	     -4.02632307	     32.78172752	     -7.89300761	      1.68033830	     31.41368413	     31.41368413	      8.87085697	    -14.76733519	     10.08206364	     -8.94898514	      5.48776643	      3.97198617	     37.39167775	    -18.70714279	     -5.14606969	    117.55692742	     44.23978500	      0.00000000	      0.00000000	     -3.53626477	    -10.30900898	      9.99958693	     26.29804736	     45.84523453	      0.00000000	      0.00000000
      4.89785714	     -5.31628082	     -4.12708691	      5.58555827	      0.82862757	      0.93084297	      0.47517392	      6.91018529	      3.68337122	    -18.62969125	     10.74375491	     10.74375491	     11.35319045	      1.71437571	     -4.13643580	     32.92259152	     -7.39612154	      2.03150128	     28.14475053	     28.14475053	      8.88747966	    -12.81448015	     10.15781479	     -8.89457388	      5.48858838	      4.03631722	     38.54877615	    -18.82369814	     -5.42559782	    118.14415734	     44.24160545	      0.00000000	      0.00000000	     -4.44155755	    -10.52388863	     10.09979239	     26.08374196	     45.80639244	      0.00000000	      0.00000000
      4.90992857	     -5.39948360	     -4.16394105	      5.78783206	      0.82744091	      0.93025743	      0.47431793	      6.34781990	      3.75534263	    -18.89530474	     10.34031495	     10.34031495	     11.65422411	      2.14870677	     -4.41471113	     32.88608072	     -7.07877332	      2.03434968	     25.11782712	     25.11782712	      8.40189674	    -10.52570220	      8.76778993	     -8.99827495	      5.57903823	      3.97840209	     39.57093875	    -18.58079731	     -5.71557306	    118.77221174	     44.26665682	      0.00000000	      0.00000000	     -5.53220050	    -10.90853427	     10.73932997	     26.45994428	     45.65165652	      0.00000000	      0.00000000
      4.92200000	     -5.61361840	     -4.13684494	      5.96025493	      0.82617482	      0.92955222	      0.47334224	      6.05295264	      3.72332872	    -18.93189259	     10.17215136	     10.17215136	     11.95328843	      2.09709968	     -4.51778655	     32.98831141	     -6.62731325	      2.12492221	     22.42451677	     22.42451677	      8.21278071	     -8.65011517	      8.89811095	     -8.94032662	      5.55476204	      4.07492017	     40.40573198	    -18.71651047	     -5.88266727	    119.10012375	     44.27272481	      0.00000000	      0.00000000	     -6.26061174	    -11.10930262	     10.87275753	     26.26450773	     45.61220937	      0.00000000	      0.00000000
